<?xml version="1.0" encoding="UTF-8" standalone="no"?>
<!-- Created with Inkscape (http://www.inkscape.org/) -->

<svg
   width="1807.4672"
   height="1663.0337"
   id="svg2"
   version="1.1"
   inkscape:version="1.4.2 (f4327f4, 2025-05-13)"
   sodipodi:docname="spark_dream_logo.svg"
   xmlns:inkscape="http://www.inkscape.org/namespaces/inkscape"
   xmlns:sodipodi="http://sodipodi.sourceforge.net/DTD/sodipodi-0.dtd"
   xmlns="http://www.w3.org/2000/svg"
   xmlns:svg="http://www.w3.org/2000/svg"
   xmlns:rdf="http://www.w3.org/1999/02/22-rdf-syntax-ns#"
   xmlns:cc="http://creativecommons.org/ns#"
   xmlns:dc="http://purl.org/dc/elements/1.1/">
  <defs
     id="defs4">
    <inkscape:path-effect
       effect="spiro"
       id="path-effect3968"
       is_visible="true"
       lpeversion="0" />
    <inkscape:path-effect
       effect="spiro"
       id="path-effect2987"
       is_visible="true"
       lpeversion="0" />
    <inkscape:path-effect
       effect="spiro"
       id="path-effect2987-9"
       is_visible="true"
       lpeversion="0" />
    <inkscape:path-effect
       effect="spiro"
       id="path-effect3968-9"
       is_visible="true"
       lpeversion="0" />
    <inkscape:path-effect
       effect="spiro"
       id="path-effect2987-6"
       is_visible="true"
       lpeversion="0" />
  </defs>
  <sodipodi:namedview
     id="base"
     pagecolor="#ffffff"
     bordercolor="#666666"
     borderopacity="1.0"
     inkscape:pageopacity="0.0"
     inkscape:pageshadow="2"
     inkscape:zoom="0.24748738"
     inkscape:cx="664.68036"
     inkscape:cy="806.10171"
     inkscape:document-units="px"
     inkscape:current-layer="layer1"
     showgrid="false"
     inkscape:object-paths="false"
     inkscape:window-width="1680"
     inkscape:window-height="979"
     inkscape:window-x="-8"
     inkscape:window-y="-8"
     inkscape:window-maximized="1"
     inkscape:showpageshadow="2"
     inkscape:pagecheckerboard="0"
     inkscape:deskcolor="#d1d1d1" />
  <metadata
     id="metadata7">
    <rdf:RDF>
      <cc:Work
         rdf:about="">
        <dc:format>image/svg+xml</dc:format>
        <dc:type
           rdf:resource="http://purl.org/dc/dcmitype/StillImage" />
        <dc:title />
      </cc:Work>
    </rdf:RDF>
  </metadata>
  <g
     inkscape:label="Layer 1"
     inkscape:groupmode="layer"
     id="layer1"
     transform="translate(523.70745,308.89683)">
    <path
       style="fill:#ffffff;fill-opacity:1;stroke:#000000;stroke-width:122.631;stroke-linecap:butt;stroke-linejoin:round;stroke-miterlimit:4;stroke-dasharray:none;stroke-dashoffset:0;stroke-opacity:1"
       d="m 2295.9353,1043.8268 c -64.9979,20.1031 -119.8873,63.1507 -175.8023,101.9111 -55.9151,38.7603 -117.5901,75.0307 -185.5534,78.1684 -37.4565,1.7293 -74.875,-6.871 -109.6467,-20.9035 -34.7716,-14.0325 -67.132,-33.3973 -98.5367,-53.8844 -62.8096,-40.9742 -124.2393,-87.6174 -196.6886,-106.9828 -69.3937,-18.5487 -142.8167,-10.3802 -214.3713,-16.6624 -35.7773,-3.1411 -71.629,-10.0604 -104.1818,-25.2328 -32.5527,-15.17243 -61.7536,-39.1377 -78.8399,-70.72793 -18.0601,-33.39074 -21.5328,-73.28184 -15.5627,-110.77141 5.97,-37.48957 20.8154,-72.99473 37.7299,-106.98011 16.9146,-33.98538 36.0283,-66.89662 51.3638,-101.62314 15.3355,-34.72652 26.9199,-71.7413 27.6813,-109.69561 0.756,-37.68513 -9.1976,-74.91252 -23.3845,-109.83347 -14.1868,-34.92096 -32.5844,-67.9407 -49.6681,-101.53963 -17.0837,-33.59893 -32.9896,-68.14132 -41.7093,-104.81156 -8.7198,-36.67024 -9.9337,-75.86675 2.0994,-111.587106 12.9968,-38.580943 40.873,-71.0637737 74.2658,-94.351696 33.3928,-23.287923 72.1276,-37.947245 111.5562,-48.085908 78.8572,-20.277327 162.2528,-23.469327 237.9895,-53.36203 69.4152,-27.39766 128.1956,-75.55195 190.2307,-117.03388 31.0175,-20.74097 63.2267,-40.01304 97.7882,-54.07634 34.5616,-14.0633 71.6593,-22.83047 108.9627,-21.97355 71.898,1.65162 138.1361,38.36277 197.3262,79.21113 59.1901,40.84837 115.7895,87.38979 182.8076,113.47871 77.0711,30.002381 162.0961,30.702595 242.7634,48.947892 40.3336,9.122649 80.1197,22.905479 114.5209,45.852917 34.4012,22.9474383 63.2259,55.700024 76.3597,94.911354 12.0453,35.961667 10.3668,75.469117 0.9548,112.208007 -9.412,36.73888 -26.2129,71.13735 -44.2039,104.52383 -17.9909,33.38648 -37.3247,66.14538 -52.3444,100.96982 -15.0196,34.82445 -25.7048,72.14679 -25.3101,110.07007 0.3879,37.27222 11.4556,73.73154 26.4032,107.87737 14.9476,34.14584 33.785,66.42394 50.7846,99.59595 16.9996,33.17202 32.2986,67.64914 39.4568,104.22957 7.1583,36.58044 5.7112,75.68102 -9.7717,109.58748 -16.8437,36.88643 -49.2997,65.18796 -85.929,82.58382 -36.6292,17.39585 -77.3151,24.67365 -117.7661,27.50785 -80.9021,5.6682 -164.295,-5.4795 -241.7742,18.484 z"
       id="path3966"
       inkscape:path-effect="#path-effect3968"
       inkscape:original-d="m 2295.9353,1043.8268 c -196,61.8478 -237.9785,183.9592 -361.3557,180.0795 -168.3885,-5.2948 -175.736,-133.4403 -404.872,-181.7707 -182.1495,-38.42 -325.6932,-16.0726 -397.393,-112.62313 -64.0112,-86.19706 102.0802,-369.58511 101.2123,-429.07027 -2.317,-158.82185 -229.5863,-276.73049 -112.6625,-427.771766 100.0644,-129.262319 258.5059,-170.59271 423.8115,-195.799634 156.8406,-23.9161 249.8375,-194.29482 396.9816,-193.08377 142.0558,1.16916 251.651,132.08104 380.1338,192.68984 142.6955,67.313311 366.2308,47.063779 433.644,189.712163 63.3118,133.969657 -118.9023,279.608757 -120.9036,427.771727 -1.9567,144.86501 178.9457,295.61141 106.8729,421.29037 -76.8849,134.06997 -215.4664,55.99836 -445.4693,128.57567 z"
       inkscape:connector-curvature="0"
       sodipodi:nodetypes="sssssssaaaaas"
       inkscape:export-xdpi="90"
       inkscape:export-ydpi="90"
       inkscape:export-filename="C:\Users\Francois\Documents\Crypto\SparkDream\logo.png"
       transform="translate(-1555.6349,68.690371)" />
    <path
       style="fill:#000000;fill-opacity:1;stroke:#000000;stroke-width:2.84364px;stroke-linecap:butt;stroke-linejoin:miter;stroke-opacity:1"
       d="M 1486.9482,-167.03877 2552.6005,547.91383 2242.0084,680.42659 2832.9273,1199.5043 1936.7714,692.75344 2199.1681,507.85188 1037.1252,-160.87536 Z"
       id="path2985-3"
       inkscape:path-effect="#path-effect2987-6"
       inkscape:original-d="M 1486.9482,-167.03877 2552.6005,547.91383 2242.0084,680.42659 2832.9273,1199.5043 1936.7714,692.75344 2199.1681,507.85188 1037.1252,-160.87536 Z"
       inkscape:connector-curvature="0"
       inkscape:export-filename="C:\Users\Francois\Documents\Crypto\SparkDream\logo.png"
       inkscape:export-xdpi="90"
       inkscape:export-ydpi="90"
       sodipodi:nodetypes="cccccccc"
       transform="translate(-1555.6349,68.690371)" />
    <path
       style="fill:#000000;fill-opacity:1;stroke:#000000;stroke-width:2.84364px;stroke-linecap:butt;stroke-linejoin:miter;stroke-opacity:1"
       d="M 2384.3736,-167.14408 1318.7214,547.80851 1629.3135,680.32127 1038.3946,1199.399 1934.5506,692.64812 1672.1538,507.74647 2834.1969,-160.98069 Z"
       id="path2985"
       inkscape:path-effect="#path-effect2987"
       inkscape:original-d="M 2384.3736,-167.14408 1318.7214,547.80851 1629.3135,680.32127 1038.3946,1199.399 1934.5506,692.64812 1672.1538,507.74647 2834.1969,-160.98069 Z"
       inkscape:connector-curvature="0"
       inkscape:export-filename="C:\Users\Francois\Documents\Crypto\SparkDream\logo.png"
       inkscape:export-xdpi="90"
       inkscape:export-ydpi="90"
       sodipodi:nodetypes="cccccccc"
       transform="translate(-1555.6349,68.690371)" />
  </g>
</svg>
