<?xml version="1.0" encoding="UTF-8" standalone="no"?>
<!-- Created with Inkscape (http://www.inkscape.org/) -->

<svg
   version="1.1"
   id="svg1"
   width="2082"
   height="2048"
   viewBox="0 0 2082 2048"
   sodipodi:docname="telescope.svg"
   inkscape:version="1.4.2 (f4327f4, 2025-05-13)"
   xmlns:inkscape="http://www.inkscape.org/namespaces/inkscape"
   xmlns:sodipodi="http://sodipodi.sourceforge.net/DTD/sodipodi-0.dtd"
   xmlns="http://www.w3.org/2000/svg"
   xmlns:svg="http://www.w3.org/2000/svg">
  <defs
     id="defs1" />
  <sodipodi:namedview
     id="namedview1"
     pagecolor="#ffffff"
     bordercolor="#000000"
     borderopacity="0.25"
     inkscape:showpageshadow="2"
     inkscape:pageopacity="0.0"
     inkscape:pagecheckerboard="0"
     inkscape:deskcolor="#d1d1d1"
     inkscape:zoom="0.35888672"
     inkscape:cx="1042.1116"
     inkscape:cy="1024"
     inkscape:window-width="1680"
     inkscape:window-height="979"
     inkscape:window-x="-8"
     inkscape:window-y="-8"
     inkscape:window-maximized="1"
     inkscape:current-layer="svg1" />
  <path
     style="display:inline;fill:#000000;stroke:#000000;stroke-opacity:1;stroke-width:100;stroke-dasharray:none"
     d="m 617.5,1773.8912 c -44.75847,-6.4519 -109.29551,-43.8639 -171,-99.1283 -61.66449,-55.2287 -115.01683,-123.8574 -145.57922,-187.2629 -30.38712,-63.0419 -34.39631,-106.0259 -12.47181,-133.7148 6.18247,-7.808 16.94097,-15.1673 26.97348,-18.451 7.14936,-2.34 9.74374,-2.6537 22.57755,-2.73 22.36086,-0.1328 41.08725,4.7189 65.80818,17.0499 l 13.30818,6.6382 3.69182,-3.4733 c 6.20485,-5.8376 67.7556,-65.336 102.69182,-99.2678 18.15,-17.6282 50.67869,-49.122 72.28598,-69.9862 21.6073,-20.8643 39.08694,-38.4538 38.84366,-39.0878 -1.24963,-3.2564 -6.78004,-24.4241 -9.07186,-34.7225 -8.36303,-37.5798 -11.95997,-82.4808 -7.31474,-91.3107 0.88423,-1.6808 27.40378,-28.18785 58.93233,-58.90449 C 708.70392,928.82286 743.725,894.6319 755,883.55959 c 11.275,-11.0723 37.825,-36.98949 59,-57.59374 21.175,-20.60426 61,-59.5198 88.5,-86.47898 43.39949,-42.54598 203.9251,-199.56166 245.2466,-239.8843 13.5112,-13.18456 14.565,-14.50104 20.4143,-25.5024 25.4875,-47.93678 56.407,-84.47565 97.542,-115.26937 70.8092,-53.00784 161.9156,-74.67977 255.5406,-60.78666 39.6846,5.88883 84.2222,21.4619 121.2565,42.39863 30.8831,17.45923 58.3845,38.33078 83.0233,63.00859 38.243,38.30354 67.8621,83.58877 87.8655,134.33937 51.8865,131.64152 29.4139,275.59442 -59.0563,378.29722 -41.5139,48.19247 -102.0532,85.53105 -163.7761,101.01165 l -8.8591,2.2219 -36.238,29.0892 c -470.3064,377.5278 -515.2874,413.4687 -520.4077,415.8177 -3.7742,1.7314 -5.6685,1.948 -12.5,1.4291 -20.69719,-1.5721 -72.98097,-15.0659 -99.09806,-25.576 l -9.81235,-3.9487 -15.57059,13.6746 c -8.56383,7.5211 -40.3257,35.5037 -70.58194,62.1837 -30.25623,26.6799 -74.44838,65.5596 -98.20478,86.3992 l -43.19344,37.8904 1.56312,3.6096 c 19.41655,44.8381 22.19636,78.5728 8.60573,104.4358 -11.60196,22.0786 -38.99252,33.856 -68.75929,29.5651 z m 26.65547,-42.0439 c 13.788,-7.6391 12.86141,-35.7277 -2.37012,-71.8473 -2.20336,-5.225 -4.4405,-10.0371 -4.97141,-10.6937 -0.53092,-0.6565 -3.96875,-2.1805 -7.63962,-3.3867 -25.18862,-8.2768 -54.77679,-23.1332 -79.67432,-40.0051 -26.73851,-18.1194 -60.07898,-48.9072 -80.15213,-74.0153 -31.32497,-39.1822 -51.31078,-78.2128 -63.17579,-123.377 l -3.67208,-13.9777 -10,-5.2437 c -21.50377,-11.276 -38.30898,-16.511 -53.5,-16.666 -7.98723,-0.081 -10.16171,0.254 -13.65547,2.1063 -8.50861,4.511 -10.86584,10.5611 -10.03617,25.7589 2.37254,43.4599 44.20124,120.2338 101.0658,185.5 22.05195,25.3101 60.13959,62.0797 85.62584,82.6627 37.98724,30.679 82.35255,55.7085 113.31691,63.9299 11.72366,3.1127 22.37188,2.8376 28.83856,-0.7453 z M 701.61208,1560.5 c 65.52527,-57.4836 115.96622,-101.619 142.07886,-124.3179 10.55501,-9.1752 19.1995,-17.1321 19.20997,-17.6821 0.0105,-0.55 -5.25044,-3.925 -11.69093,-7.5 -16.69552,-9.2674 -47.46367,-30.018 -62.95018,-42.4547 -45.84003,-36.8127 -82.30172,-78.756 -111.74546,-128.5453 -6.87252,-11.6214 -20.22709,-37.934 -24.32724,-47.9322 l -2.2277,-5.4322 -13.2297,12.976 c -7.27633,7.1368 -32.57736,31.6313 -56.2245,54.4322 -90.70918,87.4631 -104.51542,100.8276 -121.15337,117.2773 l -17.14816,16.9541 1.93553,7.1124 c 10.4942,38.5625 26.12163,70.5465 49.89241,102.1124 30.89246,41.023 70.6023,74.4686 113.46839,95.5685 16.50684,8.1252 35.29942,15.9183 37.69856,15.6333 0.9342,-0.111 26.32029,-21.8018 56.41352,-48.2018 z m 413.51852,-217.752 c 91.6904,-73.4805 251.9943,-202.126 354.3694,-284.385 20.35,-16.3513 37.133,-30.0462 37.2955,-30.433 0.1626,-0.3868 -4.9782,-0.7763 -11.4239,-0.8655 -40.4306,-0.5597 -94.5598,-13.4405 -135.6784,-32.28642 -65.6475,-30.08837 -125.192,-81.2004 -165.9964,-142.48874 -30.036,-45.11399 -52.2806,-101.72782 -60.0337,-152.78934 -3.4958,-23.02245 -4.1495,-32.61174 -4.1245,-60.5 0.025,-28.47565 1.2181,-43.70127 4.9618,-63.34941 0.7468,-3.91916 1.1958,-7.28776 0.9977,-7.48579 -0.198,-0.19804 -9.7286,8.81003 -21.1791,20.01793 -28.0551,27.46082 -88.0813,85.96135 -136.819,133.34161 -22,21.38725 -59.8,58.26921 -84,81.9599 -24.2,23.69069 -74.375,72.72955 -111.5,108.97524 -37.125,36.24569 -80.6516,78.91157 -96.72578,94.81302 l -29.22579,28.9119 1.45888,15.2285 c 11.10128,115.8812 70.3201,220.4543 166.0822,293.2806 41.25478,31.374 94.73795,57.3573 146.91049,71.3726 11.13617,2.9915 37.0695,8.6563 40.5,8.8467 0.825,0.046 47.6838,-36.9284 104.1306,-82.1648 z M 1543.5,979.48509 c 62.5553,-8.19493 116.4565,-34.23978 161.3737,-77.97516 47.1527,-45.91203 76.0361,-102.24132 87.6046,-170.84892 12.8516,-76.21735 -4.4981,-160.88305 -47.2672,-230.66101 -19.9836,-32.60337 -48.7178,-65.30485 -77.988,-88.75577 -26.1943,-20.98647 -64.3434,-42.33521 -95.2231,-53.28807 -79.7362,-28.28199 -162.6175,-24.21513 -234.6538,11.51411 -30.7936,15.27332 -53.5599,31.50183 -76.3681,54.43773 -45.7138,45.96961 -73.5761,102.20189 -84.272,170.07945 -2.9474,18.70499 -3.1885,71.22822 -0.4084,89.01255 12.3491,79.00044 42.6881,140.96659 95.6512,195.36391 58.7231,60.31334 132.3384,95.88518 212.4248,102.64638 13.8708,1.17103 44.5947,0.37849 59.1263,-1.5252 z m -74,-175.0404 c -19.1092,-3.22883 -40.2155,-11.74799 -57.3473,-23.14709 -10.2205,-6.80045 -27.0546,-22.76692 -35.7943,-33.94942 -21.8505,-27.95779 -32.748,-59.56909 -32.6976,-94.84818 0.025,-17.29604 1.9187,-29.37602 6.977,-44.5 20.93,-62.57901 81.9527,-100.11517 147.0448,-90.44991 17.1012,2.53927 37.5395,9.44971 49.6761,16.79607 l 3.8586,2.33568 -7.8836,-0.45638 c -33.4326,-1.93538 -60.8314,29.95278 -53.937,62.77454 3.6818,17.52733 14.1654,31.24603 29.7206,38.89202 12.6364,6.21127 23.1344,7.55124 35.7896,4.5682 17.0921,-4.02889 31.2399,-17.05325 37.2138,-34.2586 2.7901,-8.03601 3.4598,-20.12607 1.5617,-28.19576 -0.8401,-3.57177 -1.3819,-6.63967 -1.204,-6.81755 0.1778,-0.17788 3.2774,4.11393 6.888,9.53736 40.2439,60.45114 33.3945,138.86562 -16.2958,186.55955 -19.6476,18.85831 -43.0022,30.69562 -69.4516,35.20175 -10.8588,1.84998 -33.0459,1.82872 -44.119,-0.0423 z"
     id="path1" />
</svg>
